<svg width="485" height="485" viewBox="0 0 485 485" fill="none"
  xmlns="http://www.w3.org/2000/svg">
  <rect width="485" height="485" fill="none"/>
  <circle cx="242.5" cy="242.5" r="242.5" fill="white"/>
  <path d="M374 67.6411C401.821 95.4618 408.302 148.533 381.711 195.383C381.479 195.792 381.305 196.076 381.032 196.46C372.554 208.378 202.34 446.212 255 258C296.698 108.968 197.677 139.414 150.395 161.02C139.82 165.853 127.277 158.238 129.322 146.793C134.644 117.01 148.955 89.3274 170.641 67.6411C198.584 39.6982 236.483 24 276 24C315.517 24 346.057 39.6982 374 67.6411Z" stroke="#6249FD" stroke-width="40"/>
  <path d="M98.6039 408.564C70.7833 380.744 64.3016 327.672 90.8926 280.822C91.1251 280.413 91.2988 280.129 91.5718 279.745C100.05 267.828 270.264 29.9938 217.604 218.205C175.906 367.237 274.927 336.792 322.209 315.185C332.784 310.353 345.327 317.967 343.282 329.413C337.96 359.195 323.649 386.878 301.963 408.564C274.02 436.507 236.121 452.205 196.604 452.205C157.087 452.205 126.547 436.507 98.6039 408.564Z" stroke="#FA4949" stroke-width="40"/>
</svg>
